<svg xmlns="http://www.w3.org/2000/svg" viewBox="0 0 119.9 54.9"><defs><style>.cls-1{fill:#2ab1ac;}</style></defs><title>Dataiku</title><g id="Слой_2" data-name="Слой 2"><g id="Слой_1-2" data-name="Слой 1"><path class="cls-1" d="M37.2,13.9a1.23,1.23,0,0,0-1.1.7,1.12,1.12,0,0,0,.3,1.3,1.44,1.44,0,0,0,1.3.3,1.23,1.23,0,0,0,.7-1.1A1.22,1.22,0,0,0,37.2,13.9Z"/><path class="cls-1" d="M27.3,0A27.3,27.3,0,1,0,54.6,27.3,27.27,27.27,0,0,0,27.3,0ZM42.6,36H29.1V33.8H42.6ZM40.5,15.2s-1,1.4-.5,4.8c1,6.3-2.4,12-8.3,12H27.3v1.7H23.8c-.9,0-2.6-.1-3.3.6-7.8,7.4-9.4,9.6-9.9,9.9-.3.2-.4-.2-.4-.2L32.6,16.3c0-5,5.4-6.3,7.6-2.6l2.9-1Z"/><path class="cls-1" d="M75.3,23.6V21.4h-.1a3.86,3.86,0,0,1-3.9,2.7c-4.2,0-5.8-3.5-5.8-9.6,0-7.9,2.8-9.1,5.5-9.1A4.08,4.08,0,0,1,75,8h.1V0h3.6V23.7H75.3Zm0-8.7c0-4.3-.5-6.7-3.2-6.7-2.1,0-2.8,1.7-2.8,6.5,0,4,.5,6.6,3,6.6S75.3,18.7,75.3,14.9ZM93.9,9.7V19.9c0,.7.4,1.3.9,1.3.2,0,.5,0,.6-.1v2.3a4.36,4.36,0,0,1-1.8.4c-1.6,0-2.9-.6-3-2.4h-.1A4.62,4.62,0,0,1,86.1,24c-2.9,0-4.6-1.6-4.6-5,0-4,1.7-4.8,4.1-5.6l2.8-.8c1.3-.4,2.1-.7,2.1-2.3S89.9,7.6,88,7.6c-2.4,0-2.7,1.7-2.7,3.4H81.9c0-3.8,1.6-5.9,6.3-5.9C91.3,5.3,93.9,6.6,93.9,9.7Zm-3.4,7.5v-3c-.9.7-2.9,1.2-4,1.7A3.06,3.06,0,0,0,85,18.8c0,1.5.7,2.7,2.2,2.7C89.4,21.4,90.5,19.8,90.5,17.2Zm5.4-8.7V5.8h2.5V.7H102V5.8h2.9V8.5H102V19.1c0,1.4.4,1.9,1.6,1.9a4.89,4.89,0,0,0,1.3-.1v2.7a12.31,12.31,0,0,1-2.9.3c-2.4,0-3.6-.7-3.6-4.3V8.5Zm22.5,1.2V19.9c0,.7.4,1.3.9,1.3.2,0,.5,0,.6-.1v2.3a4.36,4.36,0,0,1-1.8.4c-1.6,0-2.9-.6-3-2.4H115a4.62,4.62,0,0,1-4.4,2.6c-2.9,0-4.6-1.6-4.6-5,0-4,1.7-4.8,4.1-5.6l2.8-.8c1.3-.4,2.1-.7,2.1-2.3s-.6-2.7-2.5-2.7c-2.4,0-2.7,1.7-2.7,3.4h-3.4c0-3.8,1.6-5.9,6.3-5.9C115.9,5.3,118.4,6.6,118.4,9.7ZM115,17.2v-3c-.9.7-2.9,1.2-4,1.7a3.06,3.06,0,0,0-1.5,2.9c0,1.5.7,2.7,2.2,2.7C114,21.4,115,19.8,115,17.2ZM66.4,54.4V36.6H70V54.4Zm0-20.3V30.5H70v3.6Zm7.2,20.3V30.8h3.6V44.1h.1l5.4-7.5h4.1l-5.4,6.9,6.1,11H83.6l-4.4-8.1-2,2.5v5.7H73.6Zm24.4,0V52.3h-.1a5.13,5.13,0,0,1-4.5,2.6c-2.7,0-4.4-1.2-4.4-5.8V36.6h3.6V49.4c0,2,.9,2.7,2.4,2.7a2.81,2.81,0,0,0,2.9-3V36.6h3.6V54.4Z"/></g></g></svg>